<svg width="512" height="512" xmlns="http://www.w3.org/2000/svg" xmlns:xlink="http://www.w3.org/1999/xlink" xml:space="preserve" overflow="hidden"><g transform="translate(-289 -113)"><path d="M652.055 396.927C623.352 396.927 600.079 420.2 600.079 448.903 600.079 477.606 623.352 500.879 652.055 500.879 680.758 500.879 704.03 477.606 704.03 448.903 704.03 420.2 680.758 396.927 652.055 396.927ZM652.055 486.139C631.885 486.139 615.594 469.849 615.594 449.679 615.594 429.509 631.885 413.218 652.055 413.218 672.224 413.218 688.515 429.509 688.515 449.679 688.515 469.849 672.224 486.139 652.055 486.139Z" fill="#A6A6A6"/><path d="M784.709 128.515C780.055 123.861 773.849 121.533 766.867 121.533L425.533 121.533C423.982 121.533 421.655 121.533 420.103 122.309 408.467 124.636 399.158 135.497 399.158 147.909L399.158 343.4C373.558 354.261 354.939 379.861 354.939 409.339 354.939 428.733 362.697 450.455 375.109 467.521L316.927 488.467C316.152 488.467 315.376 489.242 315.376 489.242 303.739 497 296.758 510.964 296.758 524.927L296.758 607.933C296.758 612.588 299.861 615.691 304.515 615.691L548.103 615.691C552.758 615.691 555.861 612.588 555.861 607.933L555.861 526.479C555.861 511.739 548.879 498.552 536.467 490.018 535.691 490.018 535.691 489.242 534.915 489.242L476.733 469.073C486.042 456.661 493.024 441.145 495.352 426.406L556.636 426.406 553.533 427.182C549.655 427.958 547.327 431.061 547.327 434.939L547.327 465.194C547.327 469.073 549.655 472.176 553.533 472.952L568.273 475.279C569.824 480.709 572.151 486.139 574.479 490.794L565.945 503.206C563.618 506.309 564.394 510.188 566.721 513.291L587.667 535.012C589.994 537.339 594.648 538.115 597.752 535.788L610.164 527.255C615.594 529.582 620.249 531.909 625.679 533.461L628.006 548.2C628.782 552.079 631.885 554.406 635.764 554.406L666.018 554.406C669.897 554.406 673 552.079 673.776 548.2L676.103 533.461C681.533 531.909 686.964 529.582 691.618 527.255L704.03 535.788C707.133 538.115 711.012 537.339 714.115 535.012L735.836 513.291C738.164 510.964 738.939 506.309 736.612 503.206L728.079 490.794C731.182 485.364 732.733 480.709 734.285 475.279L749.024 472.952C752.903 472.176 755.23 469.073 755.23 465.194L755.23 434.939C755.23 431.061 752.903 427.958 749.024 427.182L746.697 425.63 767.642 425.63C781.606 425.63 793.242 413.994 793.242 400.03L793.242 147.133C793.242 140.152 790.139 133.17 784.709 128.515ZM414.673 147.133C414.673 141.703 419.327 137.048 424.758 137.048L766.867 137.048C768.418 137.048 769.194 137.048 770.745 137.824 772.297 138.6 773.073 139.376 773.849 140.152 775.4 141.703 776.952 144.806 776.952 147.909L776.952 176.612 414.673 176.612ZM528.709 503.206C536.467 508.636 540.345 517.17 540.345 525.703L540.345 600.176 312.273 600.176 312.273 524.927C312.273 515.618 316.927 507.861 323.909 502.43L386.745 479.158C398.382 490.018 412.345 497 427.085 497 441.824 497 455.012 490.018 466.648 479.933ZM426.309 482.261C396.83 482.261 370.455 441.145 370.455 408.564 370.455 377.533 395.279 352.709 426.309 352.709 457.339 352.709 482.164 377.533 482.164 408.564 482.164 441.921 455.788 482.261 426.309 482.261ZM740.491 457.436 727.303 459.764C724.2 460.539 721.873 462.867 721.097 465.97 719.545 472.952 716.442 479.933 712.564 486.139 711.012 488.467 711.012 492.345 712.564 494.673L720.321 505.533 707.909 517.945 697.048 510.188C694.721 508.636 690.842 508.636 688.515 510.188 682.309 514.067 675.327 517.17 667.57 518.721 664.467 519.497 662.139 521.824 661.364 524.927L659.036 538.115 641.97 538.115 639.642 524.927C638.867 521.824 636.539 519.497 633.436 518.721 625.679 517.17 619.473 514.067 612.491 510.188 610.164 508.636 606.285 508.636 603.958 510.188L593.097 517.945 580.685 505.533 588.442 494.673C589.994 492.345 589.994 488.467 588.442 486.139 584.564 479.933 581.461 472.952 579.909 465.194 579.133 462.091 576.806 459.764 573.703 458.988L560.515 456.661 560.515 439.594 573.703 437.267C576.806 436.491 579.133 434.164 579.909 431.061 581.461 424.079 584.564 417.097 588.442 410.115 589.994 407.788 589.994 403.909 588.442 401.582L580.685 390.721 593.097 378.309 603.958 386.067C606.285 387.618 610.164 387.618 612.491 386.067 618.697 382.188 625.679 379.085 633.436 377.533 636.539 376.758 638.867 374.43 639.642 371.327L641.97 358.139 659.036 358.139 661.364 371.327C662.139 374.43 664.467 376.758 667.57 377.533 675.327 379.085 682.309 382.188 688.515 386.067 690.842 387.618 694.721 387.618 697.048 386.067L707.909 378.309 720.321 390.721 712.564 401.582C711.012 403.909 711.012 407.788 712.564 410.115 716.442 416.321 719.545 423.303 721.097 431.061 721.873 434.164 724.2 436.491 727.303 437.267L740.491 439.594ZM777.727 400.03C777.727 405.461 773.073 410.115 767.642 410.115L731.182 410.115 730.406 410.115C729.63 409.339 729.63 408.564 728.855 407.788L737.388 395.376C739.715 392.273 738.939 388.394 736.612 385.291L714.891 364.345C712.564 362.018 707.909 361.242 704.806 363.57L692.394 372.103C687.739 369.776 682.309 367.448 676.879 365.897L674.552 351.158C673.776 347.279 670.673 344.952 666.794 344.952L636.539 344.952C632.661 344.952 629.558 347.279 628.782 351.158L626.455 365.897C621.024 367.448 615.594 369.776 610.939 372.103L598.527 363.57C595.424 361.242 591.545 362.018 588.442 364.345L567.497 385.291C565.17 387.618 564.394 392.273 566.721 395.376L575.255 407.788C574.479 408.564 574.479 410.115 573.703 410.891 572.927 410.115 571.376 410.115 570.6 410.115L497.679 410.115C497.679 409.339 497.679 409.339 497.679 408.564 497.679 369 465.873 337.194 426.309 337.194 422.43 337.194 418.552 337.97 414.673 337.97L414.673 190.576 777.727 190.576Z" fill="#A6A6A6"/><path d="M458.891 148.685 448.03 148.685C443.376 148.685 440.273 151.788 440.273 156.442 440.273 161.097 443.376 164.2 448.03 164.2L458.891 164.2C463.545 164.2 466.648 161.097 466.648 156.442 466.648 152.564 462.77 148.685 458.891 148.685Z" fill="#A6A6A6"/><path d="M509.315 148.685 498.455 148.685C493.8 148.685 490.697 151.788 490.697 156.442 490.697 161.097 493.8 164.2 498.455 164.2L509.315 164.2C513.97 164.2 517.073 161.097 517.073 156.442 517.073 152.564 513.194 148.685 509.315 148.685Z" fill="#A6A6A6"/><path d="M559.739 148.685 548.879 148.685C544.224 148.685 541.121 151.788 541.121 156.442 541.121 161.097 544.224 164.2 548.879 164.2L559.739 164.2C564.394 164.2 567.497 161.097 567.497 156.442 567.497 152.564 563.618 148.685 559.739 148.685Z" fill="#A6A6A6"/><path d="M745.146 148.685 605.509 148.685C600.855 148.685 597.752 151.788 597.752 156.442 597.752 161.097 600.855 164.2 605.509 164.2L745.921 164.2C750.576 164.2 753.679 161.097 753.679 156.442 752.903 152.564 749.8 148.685 745.146 148.685Z" fill="#A6A6A6"/><path d="M458.115 231.691 735.061 231.691C739.715 231.691 742.818 228.588 742.818 223.933 742.818 219.279 739.715 216.176 735.061 216.176L458.115 216.176C453.461 216.176 450.358 219.279 450.358 223.933 450.358 228.588 453.461 231.691 458.115 231.691Z" fill="#A6A6A6"/><path d="M458.115 278.236 735.061 278.236C739.715 278.236 742.818 275.133 742.818 270.479 742.818 265.824 739.715 262.721 735.061 262.721L458.115 262.721C453.461 262.721 450.358 265.824 450.358 270.479 450.358 274.358 453.461 278.236 458.115 278.236Z" fill="#A6A6A6"/><path d="M458.115 324.006 735.061 324.006C739.715 324.006 742.818 320.903 742.818 316.248 742.818 311.594 739.715 308.491 735.061 308.491L458.115 308.491C453.461 308.491 450.358 311.594 450.358 316.248 450.358 320.127 453.461 324.006 458.115 324.006Z" fill="#A6A6A6"/></g></svg>