<svg id="Layer_1" enable-background="new 0 0 468 468" viewBox="0 0 468 468" xmlns="http://www.w3.org/2000/svg"><g><g id="XMLID_160_"><g><path d="m452 21.174c0-11.694-9.476-21.174-21.165-21.174h-393.67c-11.689 0-21.165 9.48-21.165 21.174v75.972h436z" fill="#4c97e3"/><path d="m16 97.146v249.32c0 11.694 9.476 21.174 21.165 21.174h393.67c11.689 0 21.165-9.48 21.165-21.174v-249.32z" fill="#e3edf0"/></g><g id="XMLID_161_" fill="#fff"><path d="m128.501 33.319h29.308v32h-29.308z"/><path d="m69.021 33.319h29.308v32h-29.308z"/></g></g><g><g id="XMLID_10_"><path d="m393.949 339.099h-32v-27.832c0-20.198-16.029-36.63-35.731-36.63s-35.731 16.432-35.731 36.63v27.832h-32v-27.832c0-37.843 30.384-68.63 67.731-68.63s67.731 30.788 67.731 68.63z" fill="#738394"/><g><path id="XMLID_11_" d="m387.615 468h-122.795c-11.046 0-20-8.954-20-20v-97.633c0-11.046 8.954-20 20-20h122.795c11.046 0 20 8.954 20 20v97.633c0 11.046-8.954 20-20 20z" fill="#67c7a5"/><path d="m305.915 429.562-22.785-23.082 22.773-22.48 11.035 11.179 28.897-31.172 23.468 21.755-40.268 43.438c-2.968 3.201-13.702 7.8-23.12.362z" fill="#fff"/></g></g><g><path d="m186.283 298.6h-113.203v-25.803c0-29.539 23.946-53.486 53.486-53.486h6.231c29.539 0 53.486 23.946 53.486 53.486z" fill="#52c1ff"/><ellipse cx="129.682" cy="189.901" fill="#4c97e3" rx="35.981" ry="35.996"/></g></g></g><g/><g/><g/><g/><g/><g/><g/><g/><g/><g/><g/><g/><g/><g/><g/></svg>