<?xml version="1.0" encoding="iso-8859-1"?>
<!-- Generator: Adobe Illustrator 19.0.0, SVG Export Plug-In . SVG Version: 6.00 Build 0)  -->
<svg version="1.1" id="Capa_1" xmlns="http://www.w3.org/2000/svg" xmlns:xlink="http://www.w3.org/1999/xlink" x="0px" y="0px"
	 viewBox="0 0 512.001 512.001" style="enable-background:new 0 0 512.001 512.001;" xml:space="preserve">
<g>
	<g>
		<path d="M501.333,181.333h-26.891c-1.129-3.169-2.421-6.277-3.872-9.312l19.029-19.029c4.164-4.165,4.164-10.917,0-15.083
			l-30.176-30.176c-4.165-4.164-10.917-4.164-15.083,0l-19.029,19.029c-3.036-1.445-6.144-2.733-9.312-3.861V96
			c0-5.891-4.776-10.667-10.667-10.667h-42.667C356.776,85.333,352,90.109,352,96v26.901c-3.167,1.124-6.276,2.41-9.312,3.851
			l-19.029-19.019c-4.165-4.164-10.917-4.164-15.083,0L278.4,137.909c-4.164,4.165-4.164,10.917,0,15.083l19.04,19.029
			c-1.451,3.035-2.743,6.143-3.872,9.312h-26.901c-5.891,0-10.667,4.776-10.667,10.667v42.667c0,5.891,4.776,10.667,10.667,10.667
			h26.901c1.125,3.169,2.414,6.277,3.861,9.312L278.4,273.675c-4.164,4.165-4.164,10.917,0,15.083l30.176,30.176
			c4.165,4.164,10.917,4.164,15.083,0l19.029-19.029c3.036,1.445,6.144,2.733,9.312,3.861v26.901
			c0,5.891,4.776,10.667,10.667,10.667h42.667c5.891,0,10.667-4.776,10.667-10.667v-26.891c3.168-1.128,6.276-2.417,9.312-3.861
			l19.029,19.019c4.165,4.164,10.917,4.164,15.083,0l30.176-30.176c4.164-4.165,4.164-10.917,0-15.083l-19.04-19.029
			c1.451-3.035,2.743-6.143,3.872-9.312h26.901c5.891,0,10.667-4.776,10.667-10.667V192
			C512,186.109,507.224,181.333,501.333,181.333z M490.668,223.99L490.668,223.99H466.55c-4.859,0.006-9.1,3.295-10.315,8
			c-1.748,6.74-4.43,13.203-7.968,19.2c-2.474,4.194-1.794,9.531,1.653,12.971l17.067,17.067l-15.083,15.083l-17.067-17.067
			c-3.442-3.444-8.779-4.12-12.971-1.643c-5.998,3.531-12.461,6.206-19.2,7.947c-4.709,1.216-7.999,5.462-8,10.325V320h-21.333
			l0.011-24.107c-0.001-4.863-3.291-9.11-8-10.325c-6.739-1.741-13.202-4.416-19.2-7.947c-4.192-2.477-9.529-1.801-12.971,1.643
			l-17.067,17.067l-15.083-15.083l17.067-17.067c3.447-3.439,4.128-8.777,1.653-12.971c-3.538-5.997-6.22-12.46-7.968-19.2
			c-1.215-4.705-5.456-7.994-10.315-8h-24.128v-21.333h24.117c4.859-0.006,9.1-3.295,10.315-8c1.748-6.74,4.43-13.203,7.968-19.2
			c2.474-4.194,1.794-9.531-1.653-12.971l-17.067-17.067l15.083-15.083l17.067,17.067c3.442,3.444,8.779,4.12,12.971,1.643
			c5.998-3.531,12.461-6.206,19.2-7.947c4.709-1.216,7.999-5.462,8-10.325v-24.128h21.323v24.117c0.001,4.863,3.291,9.11,8,10.325
			c6.739,1.741,13.202,4.416,19.2,7.947c4.192,2.477,9.529,1.801,12.971-1.643l17.067-17.067l15.083,15.083l-17.067,17.067
			c-3.447,3.439-4.127,8.777-1.653,12.971c3.538,5.997,6.22,12.46,7.968,19.2c1.215,4.705,5.456,7.994,10.315,8h24.128V223.99z"/>
	</g>
</g>
<g>
	<g>
		<path d="M384,170.667c-23.564,0-42.667,19.102-42.667,42.667S360.436,256,384,256c23.564,0,42.667-19.103,42.667-42.667
			C426.667,189.769,407.564,170.667,384,170.667z M384,234.667c-11.782,0-21.333-9.551-21.333-21.333
			c0-11.782,9.551-21.333,21.333-21.333c11.782,0,21.333,9.551,21.333,21.333C405.333,225.115,395.782,234.667,384,234.667z"/>
	</g>
</g>
<g>
	<g>
		<path d="M458.667,0H53.333C23.893,0.035,0.035,23.893,0,53.333v309.333h21.333V53.333c0-17.673,14.327-32,32-32h405.333
			c17.673,0,32,14.327,32,32V96H512V53.333C511.965,23.893,488.107,0.035,458.667,0z"/>
	</g>
</g>
<g>
	<g>
		<path d="M490.667,320v138.667c0,17.673-14.327,32-32,32H245.333V512h213.333c29.441-0.035,53.298-23.893,53.333-53.333V320
			H490.667z"/>
	</g>
</g>
<g>
	<g>
		<rect x="42.667" y="85.331" width="245.33" height="21.333"/>
	</g>
</g>
<g>
	<g>
		<rect x="53.33" y="42.667" width="21.333" height="21.333"/>
	</g>
</g>
<g>
	<g>
		<rect x="96" y="42.667" width="21.333" height="21.333"/>
	</g>
</g>
<g>
	<g>
		<rect x="437.33" y="42.667" width="21.333" height="21.333"/>
	</g>
</g>
<g>
	<g>
		<path d="M170.347,264.076c-7.253-29.405-33.398-50.238-63.68-50.741c-30.282,0.503-56.427,21.337-63.68,50.741
			c-0.212,0.848-0.32,1.718-0.32,2.592v21.013c0,48.032,28.117,85.653,64,85.653s64-37.621,64-85.653v-21.013
			C170.667,265.793,170.559,264.922,170.347,264.076z M149.334,287.68L149.334,287.68C149.333,323.2,130.197,352,106.666,352
			C83.136,352,64,323.201,64,287.68v-19.509c5.283-19.352,22.614-32.961,42.667-33.504c20.049,0.541,37.38,14.146,42.667,33.493
			V287.68z"/>
	</g>
</g>
<g>
	<g>
		<path d="M160,373.333c-0.866,0.056-1.735,0.056-2.602,0c-11.064-0.719-19.45-10.27-18.732-21.333h-21.333
			c-0.024,0.808-0.024,1.617,0,2.425c0.67,22.895,19.772,40.911,42.667,40.242c17.673,0,32,14.327,32,32V512h21.333v-85.333
			C213.298,397.227,189.441,373.369,160,373.333z"/>
	</g>
</g>
<g>
	<g>
		<path d="M96,352H74.667c0.056,0.866,0.056,1.735,0,2.602c-0.718,11.064-10.27,19.45-21.333,18.732
			C23.893,373.369,0.035,397.227,0,426.667V512h21.333v-85.333c0-17.673,14.327-32,32-32c0.808,0.024,1.617,0.024,2.425,0
			C78.653,393.997,96.67,374.895,96,352z"/>
	</g>
</g>
<g>
	<g>
		<rect x="42.667" y="437.33" width="21.333" height="74.67"/>
	</g>
</g>
<g>
	<g>
		<rect x="149.33" y="437.33" width="21.333" height="74.67"/>
	</g>
</g>
<g>
	<g>
		<path d="M448,394.667H277.333c-5.891,0-10.667,4.776-10.667,10.667V448c0,5.891,4.776,10.667,10.667,10.667H448
			c5.891,0,10.667-4.776,10.667-10.667v-42.667C458.667,399.442,453.891,394.667,448,394.667z M437.333,437.333H288V416h149.333
			V437.333z"/>
	</g>
</g>
<g>
	<g>
		<rect x="85.33" y="128" width="160" height="21.333"/>
	</g>
</g>
<g>
	<g>
		<rect x="170.67" y="170.67" width="53.33" height="21.333"/>
	</g>
</g>
<g>
	<g>
		<rect x="128" y="170.67" width="21.333" height="21.333"/>
	</g>
</g>
<g>
</g>
<g>
</g>
<g>
</g>
<g>
</g>
<g>
</g>
<g>
</g>
<g>
</g>
<g>
</g>
<g>
</g>
<g>
</g>
<g>
</g>
<g>
</g>
<g>
</g>
<g>
</g>
<g>
</g>
</svg>
