<svg enable-background="new 0 0 64 64" viewBox="0 0 64 64" xmlns="http://www.w3.org/2000/svg"><g id="Layer_1"/><g id="Layer_2"><g><path d="m61.1855469 17.371582c-1.3674927-.2597656-3.37677-.2518921-4.9853516-.098999v-1.6085205c0-.5087891-.3828125-.9370117-.8886719-.9936523-13.8674316-1.5610352-21.2702026 2.1382446-23.3126221 3.3823853-.6091232-.3015385-2.3007374-1.6499729-2.9041519-.3515892-.2343979.4999657-.0185776 1.0951805.4814224 1.3295555.647461.3032226 1.1220704.5703124 1.4238282.7543945v32.175293c-5.9057064-4.2063026-14.3339996-4.5682259-21.2001953-4.2036133v-15.4609376c-.0090265-1.2990856-1.9826236-1.3243885-1.999989.0000572-.000011-.0000572-.000011 16.5482826-.000011 16.5482826.0020714.5759354.5238409 1.0709877 1.1064682.9955902.1739035-.0315399 16.4384232-1.6385193 22.396822 5.0871468.2888851.2903481.7761669.4004326 1.1380711.1850319 5.8386841-6.8089142 22.435936-5.3800697 22.6526604-5.2734566.5685806.0766945 1.1219254-.4186783 1.1063538-.9943237.0000153.0000114.0000153-29.5639534.0000153-29.5639534 1.1699217-.121582 2.6445311-.1582031 3.7998045-.0522461v32.972168c-4.2666016-.4394531-19.2539063-1.4223633-28 5.2255859-8.7470703-6.6494141-23.734375-5.6650391-28-5.2255859v-23.9042969c0-.5522461-.4472656-1-1-1s-1 .4477539-1 1v25.0283203c-.0111144.5888443.5535185 1.0836143 1.1377106.9907074.1904144-.0258636 19.0117035-2.531723 28.2216644 5.1567535.3711357.3098068.9101143.3098412 1.28125 0 9.2109375-7.6889648 28.0322266-5.184082 28.2216797-5.1567383.2851563.0385742.5761719-.0463867.7939453-.2368164.21875-.1899413.34375-.4648436.34375-.7539061v-34.9702149c0-.4804687-.3417969-.8930664-.8144531-.9824219zm-6.9853516 30.3852539c-7.1739311-.3369789-15.1057205-.0385398-21.2001953 4.2021485v-32.1713867c1.6611328-.9970703 8.4755859-4.4628906 21.2001953-3.2231445v1.8398438z"/><path d="m10.1699219 14.5541992c.5527344 0 1-.4477539 1-1 0-1.0336914.4042969-2.0024414 1.1386719-2.7270508 2.301713-2.383852 6.5088997-.59056 6.5204697 2.6739349.0234756 1.7288971-1.1181259 3.2660065-2.7773056 3.7371979-1.2275391.3491211-2.0517579 1.4121094-2.0517579 2.6459961v1.9492188c0 .5522461.4472656 1 1 1s1-.4477539 1-1v-1.9492188c0-.3300781.2402344-.6206055.5986328-.722168 6.3949432-1.9298897 5.1474419-11.2207088-1.5176916-11.4374876-3.1421824-.1047597-5.9884291 2.6602573-5.9109573 5.8296328-.000062.5521908.4472036.9999447.999938.9999447z"/><path d="m15 23.8588867c-.5527344 0-1 .4477539-1 1v1.0083008c0 .5522461.4472656 1 1 1s1-.4477539 1-1v-1.0083008c0-.5522461-.4472656-1-1-1z"/><path d="m15 30.2958984c7.2851963.013588 13.2178326-6.0713882 12.9902344-13.3564453-1.0278244-17.0252921-25.3722365-16.6266615-25.9902493.3565693.0000149 7.1683331 5.8320462 12.999876 13.0000149 12.999876zm0-24c6.0058594 0 10.8330078 4.6982422 10.9941406 10.7583008.1527901 6.1463661-4.8487091 11.2501183-10.9941406 11.2416916-14.5921142-.6036529-14.5895481-21.3977408 0-21.9999924z"/><path d="m37 29.2958984h8c1.3121071-.0213451 1.3163109-1.9778309-.0000458-1.9999981.0000458-.0000019-7.9999542-.0000019-7.9999542-.0000019-1.3121071.0213452-1.3163109 1.9778309 0 2z"/><path d="m49 32.2958984h-12c-.5527344 0-1 .4477539-1 1s.4472656 1 1 1h12c1.310833-.0209503 1.3173599-1.9777069 0-2z"/><path d="m14 36.2958984c-1.312108.021347-1.3163118 1.977829.0000448 2-.0000448 0 7.9999552 0 7.9999552 0 .5527344 0 1-.4477539 1-1s-.4472656-1-1-1z"/></g></g></svg>