<svg width="512" height="512" xmlns="http://www.w3.org/2000/svg" xmlns:xlink="http://www.w3.org/1999/xlink" xml:space="preserve" overflow="hidden"><g transform="translate(-384 -104)"><path d="M569.848 302.33 538.034 302.33C534.168 302.33 531.034 305.464 531.034 309.33L531.034 375.319C531.034 379.185 534.168 382.319 538.034 382.319L569.848 382.319C573.714 382.319 576.848 379.185 576.848 375.319L576.848 309.33C576.848 305.464 573.714 302.33 569.848 302.33ZM562.848 368.319 545.034 368.319 545.034 316.33 562.848 316.33ZM627.221 273.62 595.406 273.62C591.54 273.62 588.406 276.754 588.406 280.62L588.406 375.319C588.406 379.185 591.54 382.319 595.406 382.319L627.221 382.319C631.087 382.319 634.221 379.185 634.221 375.319L634.221 280.62C634.221 276.754 631.087 273.62 627.221 273.62ZM620.221 368.319 602.406 368.319 602.406 287.62 620.221 287.62ZM684.593 244.911 652.779 244.911C648.913 244.911 645.779 248.045 645.779 251.911L645.779 375.319C645.779 379.185 648.913 382.319 652.779 382.319L684.593 382.319C688.459 382.319 691.593 379.185 691.593 375.319L691.593 251.911C691.593 248.045 688.459 244.911 684.593 244.911ZM677.593 368.319 659.779 368.319 659.779 258.911 677.593 258.911ZM748.966 375.319 748.966 223.201C748.966 219.335 745.832 216.201 741.966 216.201L710.152 216.201C706.286 216.201 703.152 219.335 703.152 223.201L703.152 375.319C703.152 379.185 706.286 382.319 710.152 382.319L741.966 382.319C745.832 382.319 748.966 379.186 748.966 375.319ZM734.966 368.319 717.152 368.319 717.152 230.201 734.966 230.201ZM640 481.349C615.931 481.349 596.349 500.931 596.349 525 596.349 549.069 615.931 568.651 640 568.651 664.069 568.651 683.651 549.069 683.651 525 683.651 500.931 664.069 481.349 640 481.349ZM640 554.651C623.65 554.651 610.349 541.349 610.349 525 610.349 508.651 623.65 495.349 640 495.349 656.35 495.349 669.651 508.65 669.651 525 669.651 541.35 656.35 554.651 640 554.651ZM497.028 457.718C495.732 459.963 493.379 461.219 490.96 461.219 489.772 461.219 488.569 460.916 487.466 460.281L477.671 454.626C476.819 454.863 475.926 455 475 455 469.492 455 465 450.508 465 445 465 442.215 466.152 439.692 468 437.876L468 419.352C468 415.486 471.134 412.352 475 412.352 478.866 412.352 482 415.486 482 419.352L482 437.876C483.275 439.128 484.208 440.72 484.67 442.5L494.467 448.156C497.814 450.089 498.961 454.369 497.028 457.718ZM445.168 474.831C447.902 477.565 447.902 481.997 445.168 484.731L442.759 487.14C441.392 488.506 439.601 489.19 437.809 489.19 436.017 489.19 434.226 488.506 432.859 487.14 430.125 484.406 430.125 479.974 432.859 477.24L435.268 474.831C438.002 472.099 442.435 472.099 445.168 474.831ZM432.812 445C432.812 448.866 429.678 452 425.812 452L422.405 452C418.539 452 415.405 448.866 415.405 445 415.405 441.134 418.539 438 422.405 438L425.812 438C429.678 438 432.812 441.134 432.812 445ZM504.831 415.167C502.098 412.433 502.098 408.001 504.832 405.268L507.242 402.859C509.977 400.127 514.409 400.127 517.141 402.86 519.874 405.594 519.874 410.026 517.14 412.759L514.73 415.168C513.363 416.534 511.572 417.218 509.781 417.218 507.989 417.218 506.198 416.534 504.831 415.167ZM445.168 405.268C447.902 408.002 447.902 412.434 445.168 415.168 443.801 416.534 442.01 417.218 440.218 417.218 438.426 417.218 436.635 416.534 435.268 415.168L432.859 412.759C430.125 410.025 430.125 405.593 432.859 402.859 435.592 400.127 440.025 400.127 442.758 402.859ZM468 395.812 468 392.405C468 388.539 471.134 385.405 475 385.405 478.866 385.405 482 388.539 482 392.405L482 395.812C482 399.678 478.866 402.812 475 402.812 471.134 402.812 468 399.678 468 395.812ZM534.595 445C534.595 448.866 531.461 452 527.595 452L524.188 452C520.322 452 517.188 448.866 517.188 445 517.188 441.134 520.322 438 524.188 438L527.595 438C531.461 438 534.595 441.134 534.595 445ZM482 494.188 482 497.594C482 501.46 478.866 504.594 475 504.594 471.134 504.594 468 501.46 468 497.594L468 494.188C468 490.322 471.134 487.188 475 487.188 478.866 487.188 482 490.322 482 494.188ZM517.14 477.24C519.874 479.973 519.874 484.405 517.141 487.139 515.774 488.506 513.982 489.19 512.191 489.19 510.4 489.19 508.608 488.506 507.242 487.14L504.832 484.731C502.098 481.998 502.098 477.566 504.831 474.832 507.564 472.098 511.997 472.099 514.73 474.831ZM805 363C799.372 363 793.875 363.572 788.563 364.657L788.563 120C788.563 116.134 785.429 113 781.563 113L556.733 113C554.877 113 553.096 113.737 551.783 115.05L493.487 173.346C492.174 174.659 491.437 176.44 491.437 178.296L491.437 364.657C486.125 363.572 480.628 363 475 363 429.785 363 393 399.785 393 445 393 490.215 429.785 527 475 527 505.481 527 532.112 510.27 546.244 485.521L574.227 485.521C574.806 486.852 575.628 488.101 576.715 489.188 580.914 493.386 579.36 498.251 578.784 499.643 578.207 501.035 575.866 505.574 569.928 505.574 563.352 505.574 558.002 510.925 558.002 517.501L558.002 532.5C558.002 539.076 563.352 544.427 569.928 544.427 575.866 544.427 578.208 548.966 578.784 550.357 579.361 551.749 580.914 556.615 576.716 560.813 574.464 563.066 573.223 566.061 573.223 569.247 573.223 572.434 574.464 575.43 576.716 577.68L587.323 588.288C591.973 592.938 599.54 592.938 604.19 588.288 608.398 584.08 613.261 585.631 614.651 586.207 616.041 586.783 620.577 589.124 620.577 595.075 620.577 601.651 625.927 607.001 632.503 607.001L647.503 607.001C654.079 607.001 659.429 601.651 659.429 595.075 659.429 589.137 663.968 586.795 665.359 586.219 666.751 585.642 671.616 584.088 675.815 588.287 678.067 590.54 681.063 591.781 684.249 591.781 687.435 591.781 690.43 590.54 692.683 588.287L703.289 577.681C705.541 575.429 706.782 572.434 706.782 569.247 706.782 566.061 705.542 563.067 703.289 560.813 699.09 556.615 700.643 551.749 701.22 550.358 701.796 548.966 704.138 544.427 710.076 544.427 716.652 544.427 722.002 539.076 722.002 532.5L722.002 517.501C722.002 510.925 716.652 505.574 710.076 505.574 704.138 505.574 701.796 501.035 701.22 499.643 700.644 498.251 699.09 493.386 703.29 489.187 704.376 488.101 705.198 486.851 705.777 485.521L733.759 485.521C747.888 510.27 774.518 527 805 527 850.215 527 887 490.215 887 445 887 399.785 850.215 363 805 363ZM549.733 136.899 549.733 171.295 515.337 171.295ZM475 513C437.505 513 407 482.495 407 445 407 407.505 437.505 377 475 377 512.495 377 543 407.505 543 445 543 482.495 512.495 513 475 513ZM708 519.488 708 530.512C699.179 531.246 691.738 536.657 688.283 544.999 684.827 553.342 686.264 562.429 691.981 569.185L684.185 576.981C677.429 571.264 668.341 569.83 659.998 573.283 651.656 576.739 646.247 584.179 645.512 593L634.489 593C633.755 584.171 628.347 576.727 620.007 573.272 611.666 569.815 602.577 571.257 595.815 576.981L588.02 569.185C593.737 562.428 595.173 553.341 591.718 544.998 588.262 536.656 580.822 531.246 572.001 530.512L572.001 519.488C580.822 518.754 588.262 513.343 591.718 505.001 595.174 496.659 593.737 487.571 588.02 480.815L595.816 473.018C602.574 478.736 611.661 480.172 620.003 476.716 628.346 473.26 633.755 465.82 634.49 456.999L645.514 456.999C646.248 465.819 651.658 473.26 660 476.716 668.344 480.172 677.43 478.737 684.188 473.019L691.984 480.815C686.266 487.571 684.83 496.657 688.285 505.001 691.738 513.344 699.179 518.754 708 519.488ZM702.488 471.521 692.68 461.713C690.428 459.461 687.432 458.22 684.246 458.22 681.06 458.22 678.065 459.461 675.813 461.713 671.613 465.912 666.747 464.358 665.355 463.781 663.964 463.205 659.425 460.863 659.425 454.926 659.425 448.35 654.075 442.999 647.499 442.999L632.499 442.999C625.923 442.999 620.573 448.35 620.573 454.926 620.573 460.864 616.034 463.205 614.643 463.781 613.252 464.358 608.386 465.914 604.186 461.713 599.536 457.063 591.969 457.063 587.319 461.713L577.511 471.521 552.572 471.521C555.428 463.196 557 454.281 557 445 557 410.538 535.62 380.994 505.437 368.881L505.437 185.296 556.733 185.296C560.599 185.296 563.733 182.162 563.733 178.296L563.733 127 774.563 127 774.563 368.881C744.379 380.994 723 410.538 723 445 723 454.281 724.572 463.196 727.427 471.521ZM805 513C767.505 513 737 482.495 737 445 737 407.505 767.505 377 805 377 842.496 377 873 407.505 873 445 873 482.495 842.495 513 805 513ZM832.163 463.337C832.163 474.853 823.663 484.574 812.137 487.467L812.237 491.612C812.33 495.477 809.273 498.685 805.408 498.779 805.351 498.78 805.293 498.781 805.236 498.781 801.448 498.781 798.334 495.758 798.241 491.95L798.136 487.604C791.69 486.113 787.414 482.553 783.325 478.695 780.513 476.042 780.385 471.612 783.038 468.8 785.69 465.988 790.121 465.859 792.934 468.513 797.57 472.887 799.964 474.343 805 474.343 812.258 474.343 818.164 469.405 818.164 463.337 818.164 457.269 812.259 452.331 805 452.331 790.022 452.331 777.836 441.113 777.836 427.325 777.836 415.804 786.343 406.079 797.877 403.191L797.762 398.385C797.67 394.521 800.728 391.313 804.593 391.22 808.466 391.145 811.666 394.186 811.759 398.051L811.886 403.361C818.2 405.052 825.407 408.726 828.739 413.794 830.863 417.024 829.965 421.364 826.735 423.488 823.504 425.61 819.164 424.714 817.04 421.483 815.75 419.521 808.816 416.319 805.001 416.319 797.743 416.319 791.838 421.257 791.837 427.325 791.837 433.393 797.742 438.331 805.001 438.331 819.978 438.331 832.163 449.549 832.163 463.337Z" fill="#A6A6A6"/></g></svg>