<svg viewBox="0 0 48 48" xmlns="http://www.w3.org/2000/svg"><g id="Work_Flow" data-name="Work Flow"><rect fill="#bfbfbf" height="12" rx="2" width="18" x="1" y="1"/><path d="m32 10-4-3 4-3 4 3z" fill="#bfbfbf"/><path d="m12 27-4-3 4-3 4 3z" fill="#bfbfbf"/><path d="m42 35a6 6 0 1 0 6 6 6 6 0 0 0 -6-6zm3.71 4.71-4 4a1 1 0 0 1 -.71.29c-.54 0-.57-.15-2.71-2.29a1 1 0 0 1 1.42-1.42l1.29 1.3 3.29-3.3a1 1 0 0 1 1.42 1.42z" fill="#fc6459"/><path d="m15 6h-10a1 1 0 0 1 0-2h10a1 1 0 0 1 0 2z" fill="#424242"/><path d="m11 10h-6a1 1 0 0 1 0-2h6a1 1 0 0 1 0 2z" fill="#424242"/><g fill="#bfbfbf"><path d="m37 23h-10a1 1 0 0 1 0-2h10a1 1 0 0 1 0 2z"/><path d="m33 27h-6a1 1 0 0 1 0-2h6a1 1 0 0 1 0 2z"/><path d="m21 40h-10a1 1 0 0 1 0-2h10a1 1 0 0 1 0 2z"/><path d="m17 44h-6a1 1 0 0 1 0-2h6a1 1 0 0 1 0 2z"/></g><path d="m44 6h-7.67l-3.73-2.8a1 1 0 0 0 -1.2 0l-3.73 2.8h-7.67v-3a3 3 0 0 0 -3-3h-14a3 3 0 0 0 -3 3v8a3 3 0 0 0 3 3h14a3 3 0 0 0 3-3v-3h7.67l3.73 2.8a1 1 0 0 0 1.2 0l3.73-2.8h7.67a2 2 0 0 1 2 2v11a2 2 0 0 1 -2 2h-2v-3a3 3 0 0 0 -3-3h-14a3 3 0 0 0 -3 3v3h-5.67l-3.73-2.8a1 1 0 0 0 -1.2 0l-3.73 2.8h-3.67a4 4 0 0 0 -4 4v11a4 4 0 0 0 4 4h2v3a3 3 0 0 0 3 3h14a3 3 0 0 0 3-3v-3h4.59l-1.3 1.29a1 1 0 0 0 1.42 1.42l3-3a1 1 0 0 0 0-1.42l-3-3a1 1 0 0 0 -1.42 1.42l1.3 1.29h-4.59v-3a3 3 0 0 0 -3-3h-14a3 3 0 0 0 -3 3v3h-2a2 2 0 0 1 -2-2v-11a2 2 0 0 1 2-2h3.67l3.73 2.8a1 1 0 0 0 1.2 0l3.73-2.8h5.67v3a3 3 0 0 0 3 3h14a3 3 0 0 0 3-3v-3h2a4 4 0 0 0 4-4v-11a4 4 0 0 0 -4-4zm-26 5a1 1 0 0 1 -1 1h-14a1 1 0 0 1 -1-1v-8a1 1 0 0 1 1-1h14a1 1 0 0 1 1 1zm14-2.25-2.33-1.75 2.33-1.75 2.33 1.75zm-24 28.25a1 1 0 0 1 1-1h14a1 1 0 0 1 1 1v8a1 1 0 0 1 -1 1h-14a1 1 0 0 1 -1-1zm4-11.25-2.33-1.75 2.33-1.75 2.33 1.75zm28 2.25a1 1 0 0 1 -1 1h-14a1 1 0 0 1 -1-1v-8a1 1 0 0 1 1-1h14a1 1 0 0 1 1 1z" fill="#424242"/></g></svg>