<svg id="Icon" height="512" viewBox="0 0 128 128" width="512" xmlns="http://www.w3.org/2000/svg"><path d="m73 128h-63a10 10 0 0 1 -10-10v-75.6a10 10 0 0 1 10-10h63a10 10 0 0 1 10 10v75.6a10 10 0 0 1 -10 10zm-63-89.6a4 4 0 0 0 -4 4v75.6a4 4 0 0 0 4 4h63a4 4 0 0 0 4-4v-75.6a4 4 0 0 0 -4-4z"/><path d="m64.62 60.08h-46.23a3 3 0 0 1 0-6h46.23a3 3 0 0 1 0 6z"/><path d="m64.62 83.24h-46.23a3 3 0 0 1 0-6h46.23a3 3 0 0 1 0 6z"/><path d="m40.4 106.23h-23.12a3 3 0 0 1 0-6h23.12a3 3 0 0 1 0 6z"/><path d="m118 95.6h-38a3 3 0 0 1 0-6h38a4 4 0 0 0 4-4v-13.92a3 3 0 0 1 6 0v13.92a10 10 0 0 1 -10 10z"/><path d="m125 53.91a3 3 0 0 1 -3-3v-40.91a4 4 0 0 0 -4-4h-63a4 4 0 0 0 -4 4v24.5a3 3 0 0 1 -6 0v-24.5a10 10 0 0 1 10-10h63a10 10 0 0 1 10 10v40.91a3 3 0 0 1 -3 3z"/><path d="m109.61 27.69h-46.23a3 3 0 0 1 0-6h46.23a3 3 0 1 1 0 6z"/><path d="m109.61 50.85h-29.46a3 3 0 0 1 0-6h29.46a3 3 0 0 1 0 6z"/><path d="m85.4 73.83h-5.4a3 3 0 0 1 0-6h5.4a3 3 0 0 1 0 6z"/></svg>