<svg width="512" height="512" xmlns="http://www.w3.org/2000/svg" xmlns:xlink="http://www.w3.org/1999/xlink" xml:space="preserve" overflow="hidden"><g transform="translate(71 -40)"><path d="M97.929 193.071C99.882 195.024 102.44 196 105 196 107.56 196 110.118 195.024 112.071 193.071L148.071 157.071C151.976 153.166 151.976 146.834 148.071 142.928 144.165 139.023 137.835 139.023 133.928 142.928L105 171.858 96.071 162.929C92.165 159.024 85.835 159.024 81.928 162.929 78.023 166.834 78.023 173.166 81.928 177.072Z" fill="#A6A6A6"/><path d="M97.929 253.071C99.882 255.024 102.44 256 105 256 107.56 256 110.118 255.024 112.071 253.071L148.071 217.071C151.976 213.166 151.976 206.834 148.071 202.928 144.165 199.023 137.835 199.023 133.928 202.928L105 231.858 96.071 222.929C92.165 219.024 85.835 219.024 81.928 222.929 78.023 226.834 78.023 233.166 81.928 237.072Z" fill="#A6A6A6"/><path d="M97.929 313.071C99.882 315.024 102.44 316 105 316 107.56 316 110.118 315.024 112.071 313.071L148.071 277.071C151.976 273.166 151.976 266.834 148.071 262.928 144.165 259.023 137.835 259.023 133.928 262.928L105 291.858 96.071 282.929C92.165 279.024 85.835 279.024 81.928 282.929 78.023 286.834 78.023 293.166 81.928 297.072Z" fill="#A6A6A6"/><path d="M97.929 373.071C99.882 375.024 102.44 376 105 376 107.56 376 110.118 375.024 112.071 373.071L148.071 337.071C151.976 333.166 151.976 326.834 148.071 322.928 144.165 319.023 137.835 319.023 133.928 322.928L105 351.858 96.071 342.929C92.165 339.024 85.835 339.024 81.928 342.929 78.023 346.834 78.023 353.166 81.928 357.072Z" fill="#A6A6A6"/><path d="M165 196 285 196C290.522 196 295 191.523 295 186 295 180.477 290.522 176 285 176L165 176C159.478 176 155 180.477 155 186 155 191.523 159.478 196 165 196Z" fill="#A6A6A6"/><path d="M165 256 285 256C290.522 256 295 251.523 295 246 295 240.477 290.522 236 285 236L165 236C159.478 236 155 240.477 155 246 155 251.523 159.478 256 165 256Z" fill="#A6A6A6"/><path d="M165 316 285 316C290.522 316 295 311.523 295 306 295 300.477 290.522 296 285 296L165 296C159.478 296 155 300.477 155 306 155 311.523 159.478 316 165 316Z" fill="#A6A6A6"/><path d="M165 376 285 376C290.522 376 295 371.523 295 366 295 360.477 290.522 356 285 356L165 356C159.478 356 155 360.477 155 366 155 371.523 159.478 376 165 376Z" fill="#A6A6A6"/><path d="M195 526C195 531.523 190.523 536 185 536 179.477 536 175 531.523 175 526 175 520.477 179.477 516 185 516 190.523 516 195 520.477 195 526Z" fill="#A6A6A6"/><path d="M431 476 401 476 401 266C401 249.458 387.542 236 371 236L335 236 335 146C335 143.262 333.87 140.728 332.071 138.929L252.071 58.929C250.312 57.169 247.743 56 245 56L45 56C39.478 56 35 60.477 35 66L35 236-1 236C-17.542 236-31 249.458-31 266L-31 476-61 476C-66.522 476-71 480.477-71 486-71 513.57-48.57 536-21 536L140 536C145.522 536 150 531.523 150 526 150 520.477 145.522 516 140 516L-21 516C-34.038 516-45.159 507.641-49.286 495.99L419.286 495.99C415.159 507.641 404.038 516 391 516L230 516C224.478 516 220 520.477 220 526 220 531.523 224.478 536 230 536L391 536C418.57 536 441 513.57 441 486 441 480.477 436.522 476 431 476ZM255 90.142 300.858 136 255 136ZM55 76 235 76 235 146C235 151.523 239.478 156 245 156L315 156 315 436 55 436ZM-11 266C-11 260.486-6.514 256-1 256L35 256 35 446C35 451.523 39.478 456 45 456L325 456C330.522 456 335 451.523 335 446L335 256 371 256C376.514 256 381 260.486 381 266L381 476-11 476Z" fill="#A6A6A6"/></g></svg>