<svg width="512" height="512" xmlns="http://www.w3.org/2000/svg" xmlns:xlink="http://www.w3.org/1999/xlink" xml:space="preserve" overflow="hidden"><defs><clipPath id="clip0"><rect x="384" y="104" width="512" height="512"/></clipPath></defs><g clip-path="url(#clip0)" transform="translate(-384 -104)"><path d="M854.919 141.252 789.478 141.252C785.336 141.252 781.978 144.61 781.978 148.752 781.978 152.894 785.336 156.252 789.478 156.252L854.919 156.252C859.061 156.252 862.419 152.894 862.419 148.752 862.419 144.61 859.062 141.252 854.919 141.252Z" fill="#A6A6A6"/><path d="M752.316 156.252 760.293 156.252C764.435 156.252 767.793 152.894 767.793 148.752 767.793 144.61 764.435 141.252 760.293 141.252L752.316 141.252C748.174 141.252 744.816 144.61 744.816 148.752 744.816 152.894 748.174 156.252 752.316 156.252Z" fill="#A6A6A6"/><path d="M752.316 191.484 854.92 191.484C859.062 191.484 862.42 188.126 862.42 183.984 862.42 179.842 859.062 176.484 854.92 176.484L752.316 176.484C748.174 176.484 744.816 179.842 744.816 183.984 744.816 188.126 748.174 191.484 752.316 191.484Z" fill="#A6A6A6"/><path d="M779.443 548.1C779.443 518.141 769.441 488.75 751.223 465.003L752.613 439.398C753.559 421.968 739.727 407.222 722.135 407.222L640.037 407.222C636.26 404.553 633.969 400.218 633.969 395.536L633.969 374.595C646.698 366.363 655.635 356.975 662.2 345.803L676.714 345.803C693.505 345.803 707.165 332.143 707.165 315.352L707.165 259.34C707.165 249.893 701.7 241.542 693.527 237.591L693.527 198.281C693.527 180.385 678.968 165.825 661.072 165.825L660.231 165.825C659.719 165.825 659.303 165.408 659.303 164.897 659.303 147.001 644.743 132.441 626.847 132.441L547.418 132.441C507.991 132.441 475.914 164.518 475.914 203.945L475.914 237.59C467.742 241.541 462.276 249.892 462.276 259.339L462.276 287.825C462.276 301.153 473.119 311.996 486.447 311.996L496.129 311.996C498.635 333.192 508.578 352.55 524.152 366.008 527.806 369.166 531.585 371.987 535.472 374.507L535.472 395.535C535.472 400.203 533.172 404.539 529.378 407.221L447.309 407.221C429.853 407.221 415.878 421.831 416.832 439.397L418.222 465.002C400.003 488.75 390.001 518.141 390.001 548.1L390.001 576.349C386.272 580.528 384 586.033 384 592.061 384 605.089 394.599 615.687 407.627 615.687L761.817 615.687C774.845 615.687 785.444 605.088 785.444 592.061 785.444 586.033 783.172 580.528 779.443 576.35ZM764.443 548.1 764.443 568.583C763.58 568.487 762.705 568.434 761.817 568.434L745.609 568.434 749.842 490.444C759.335 508.075 764.443 527.938 764.443 548.1ZM691.396 255.678C691.889 256.806 692.167 258.044 692.167 259.341L692.167 287.827C692.167 292.884 688.053 296.998 682.996 296.998L674.077 296.998 674.077 268.725 678.699 267.115C684.417 265.123 688.914 260.923 691.396 255.678ZM641.323 342.576 622.501 342.576C619.467 342.576 616.998 340.108 616.998 337.074 616.998 334.04 619.467 331.572 622.501 331.572L641.323 331.572C644.357 331.572 646.825 334.04 646.825 337.074 646.825 340.108 644.357 342.576 641.323 342.576ZM676.716 330.804 669.135 330.804C671.247 324.782 672.705 318.474 673.474 311.998L682.996 311.998C686.241 311.998 689.337 311.351 692.167 310.186L692.167 315.354C692.167 323.873 685.235 330.804 676.716 330.804ZM490.916 203.947C490.916 172.791 516.264 147.443 547.42 147.443L626.849 147.443C636.474 147.443 644.305 155.274 644.305 164.899 644.305 173.682 651.451 180.827 660.233 180.827L661.074 180.827C670.699 180.827 678.529 188.658 678.529 198.283L678.529 246.246C678.529 249.264 676.614 251.958 673.764 252.951L658.003 258.44C657.368 258.66 656.713 258.202 656.713 257.519L656.742 227.715C656.833 205.964 636.466 186.994 607.93 196.16 593.578 200.772 575.817 200.756 561.513 196.16 533.273 187.084 512.61 205.717 512.701 227.692L512.736 257.521C512.736 258.209 512.066 258.662 511.446 258.44L495.68 252.95C492.83 251.958 490.915 249.263 490.915 246.245L490.915 203.947ZM477.278 287.827 477.278 259.34C477.278 258.044 477.556 256.805 478.049 255.677 480.532 260.923 485.029 265.123 490.749 267.115L495.37 268.724 495.37 296.997 486.45 296.997C481.392 296.998 477.278 292.883 477.278 287.827ZM510.507 303.335C510.258 293.475 510.411 283.009 510.369 273.427 510.831 273.467 511.294 273.49 511.757 273.49 520.674 273.49 527.751 266.242 527.736 257.499L527.701 227.651C527.65 215.473 538.574 204.542 556.924 210.44 574.316 216.028 595.184 216.011 612.519 210.44 630.002 204.823 641.796 214.712 641.742 227.676L641.713 257.501C641.701 266.797 649.647 274.245 659.075 273.427L659.075 303.942C658.857 310.424 657.79 316.75 655.98 322.766 652.255 318.95 647.064 316.571 641.323 316.571L622.501 316.571C611.196 316.571 601.998 325.768 601.998 337.073 601.998 348.378 611.196 357.575 622.501 357.575L632.03 357.575C618.177 368.388 602.424 374.026 585.115 374.313 547.251 374.01 511.59 346.037 510.507 303.335ZM550.475 395.537 550.475 382.414C561.316 386.903 572.881 389.229 585.095 389.315L585.148 389.315C585.187 389.315 585.226 389.315 585.265 389.314 597.156 389.129 608.414 386.825 618.972 382.475L618.972 395.536C618.972 399.631 619.829 403.595 621.407 407.222L548.031 407.222C549.614 403.594 550.475 399.629 550.475 395.537ZM419.602 490.444 420.786 512.265C421.011 516.402 424.554 519.583 428.681 519.348 432.817 519.124 435.988 515.589 435.764 511.453L431.809 438.586C431.328 429.722 438.362 422.223 447.309 422.223L722.136 422.223C731.017 422.223 738.12 429.655 737.636 438.586L730.588 568.435 612.98 568.435C614.413 559.868 618.271 551.81 624.214 545.208L624.429 544.968C647.131 519.57 640.336 479.854 610.992 463.18 603.462 458.902 593.899 464.237 593.899 473.106L593.899 507.136C593.899 508.696 592.63 509.964 591.07 509.964L578.374 509.964C576.814 509.964 575.545 508.695 575.545 507.136L575.545 473.106C575.545 464.254 565.997 458.893 558.452 463.18 529.024 479.9 522.367 519.631 545.038 544.993L545.23 545.208C551.173 551.809 555.031 559.867 556.464 568.434L438.857 568.434 437.654 546.261C437.43 542.125 433.895 538.95 429.759 539.178 425.623 539.402 422.452 542.937 422.676 547.073L423.835 568.434 407.627 568.434C406.739 568.434 405.864 568.488 405.001 568.583L405.001 548.1C405.001 527.939 410.11 508.075 419.602 490.444ZM571.619 568.434C570.084 556.145 564.816 544.544 556.38 535.173L556.199 534.97C541.708 518.76 543.649 493.693 560.546 479.868L560.546 507.135C560.546 516.966 568.544 524.963 578.375 524.963L591.071 524.963C600.902 524.963 608.9 516.965 608.9 507.135L608.9 479.868C625.685 493.601 627.835 518.65 613.228 534.991L613.066 535.172C604.629 544.544 599.361 556.145 597.826 568.434ZM761.817 600.688 407.627 600.688C402.87 600.688 399 596.818 399 592.062 399 587.306 402.87 583.435 407.627 583.435L761.817 583.435C766.574 583.435 770.444 587.305 770.444 592.062 770.444 596.819 766.574 600.688 761.817 600.688Z" fill="#A6A6A6"/><path d="M888.5 155.64C892.642 155.64 896 152.282 896 148.14L896 133.624C896 117.462 882.851 104.313 866.688 104.313L740.547 104.313C724.384 104.313 711.235 117.462 711.235 133.624L711.235 196.712C711.235 212.875 724.384 226.024 740.547 226.024 743.435 226.024 745.785 228.374 745.785 231.262L745.785 270.277C745.785 275.912 749.433 280.708 754.864 282.211 760.327 283.723 765.907 281.449 768.788 276.645L797.618 228.568C798.559 226.999 800.281 226.024 802.111 226.024L866.689 226.024C882.852 226.024 896.001 212.875 896.001 196.712L896.001 183.204C896.001 179.062 892.643 175.704 888.501 175.704 884.359 175.704 881.001 179.062 881.001 183.204L881.001 196.712C881.001 204.604 874.581 211.024 866.689 211.024L802.11 211.024C795.04 211.024 788.389 214.791 784.753 220.854L760.784 260.824 760.784 231.262C760.784 220.103 751.705 211.024 740.546 211.024 732.654 211.024 726.234 204.604 726.234 196.712L726.234 133.624C726.234 125.733 732.654 119.313 740.546 119.313L866.688 119.313C874.58 119.313 881 125.733 881 133.624L881 148.14C881 152.282 884.358 155.64 888.5 155.64Z" fill="#A6A6A6"/></g></svg>